<?xml version="1.0" encoding="utf-8"?>
<!-- Generator: Adobe Illustrator 22.0.0, SVG Export Plug-In . SVG Version: 6.00 Build 0)  -->
<svg version="1.1" id="Layer_1" xmlns="http://www.w3.org/2000/svg" xmlns:xlink="http://www.w3.org/1999/xlink" x="0px" y="0px"
	 viewBox="0 0 34 34" style="enable-background:new 0 0 34 34;" xml:space="preserve">
<style type="text/css">
	.st0{fill:#7F7F7F;}
</style>
<path class="st0" d="M-151.4,25.6c-1.9-1.9-1.9-4.9,0-6.7l4.3-4.3l-2.1-2.1l-4.3,4.3c-3,3-3,7.9,0,10.9s7.9,3,10.9,0l4.3-4.3
	l-2.1-2.1l-4.3,4.3C-146.6,27.5-149.6,27.5-151.4,25.6z M-145.9,22.3l8.7-8.7l-2.2-2.2l-8.7,8.7L-145.9,22.3z M-142.6,6l-4.3,4.3
	l2.1,2.1l4.3-4.3c1.9-1.9,4.9-1.9,6.7,0c1.9,1.9,1.9,4.9,0,6.7l-4.3,4.3l2.1,2.1l4.3-4.3c3-3,3-7.9,0-10.9S-139.6,3-142.6,6z"/>
<rect x="-107" y="-105.3" style="fill:none;" width="32" height="31.7"/>
<text transform="matrix(1 0 0 1 -103.9481 -77.1469)" style="font-family:'Material-Design-Iconic-Font'; font-size:32px;"></text>
<rect x="-107" y="-165.3" style="fill:none;" width="32" height="31.7"/>
<text transform="matrix(1 0 0 1 -105.6669 -137.1469)" style="font-family:'Material-Design-Iconic-Font'; font-size:32px;"></text>
<rect x="-107" y="-54.3" style="fill:none;" width="32" height="31.7"/>
<text transform="matrix(1 0 0 1 -102.3231 -26.1469)" style="font-family:'Material-Design-Iconic-Font'; font-size:32px;"></text>
<rect x="-55.1" y="-105.3" style="fill:none;" width="32" height="31.7"/>
<text transform="matrix(1 0 0 1 -49.8023 -77.1469)" style="font-family:'Material-Design-Iconic-Font'; font-size:32px;"></text>
<rect x="-55.1" y="-163.6" style="fill:none;" width="32" height="31.7"/>
<text transform="matrix(1 0 0 1 -52.4898 -135.4802)" style="font-family:'Material-Design-Iconic-Font'; font-size:32px;"></text>
<rect x="-55.1" y="-219.3" style="fill:none;" width="32" height="31.7"/>
<text transform="matrix(1 0 0 1 -52.4898 -191.1469)" style="font-family:'Material-Design-Iconic-Font'; font-size:32px;"></text>
<rect x="-55.1" y="-54.3" style="fill:none;" width="32" height="31.7"/>
<text transform="matrix(1 0 0 1 -51.8023 -26.1469)" style="font-family:'Material-Design-Iconic-Font'; font-size:32px;"></text>
<rect x="-2.8" y="-105.3" style="fill:none;" width="32" height="31.7"/>
<text transform="matrix(1 0 0 1 -0.1564 -77.1469)" style="font-family:'Material-Design-Iconic-Font'; font-size:32px;"></text>
<rect x="-2.8" y="-57" style="fill:none;" width="32" height="31.7"/>
<text transform="matrix(1 0 0 1 -0.1564 -28.8135)" style="font-family:'Material-Design-Iconic-Font'; font-size:32px;"></text>
<path d="M-87.9,24.4c-1.5,0.6-3.2,0.8-4.8,0.4c-1.7-0.4-3.2-1.2-4.4-2.4c-2.5-2.6-3.4-6.6-1.7-9.9l5.9,5.8l4-4l-5.8-5.8
	c1.6-0.8,3.3-1,5.1-0.7c1.8,0.3,3.4,1.1,4.8,2.4c1.3,1.3,2.1,2.7,2.4,4.4c0.4,1.7,0.2,3.3-0.4,4.8l5.6,5.6c3.4-5.7,2.8-13-1.3-18.2
	c-3.7-4.6-9.9-6.8-15.7-5.6c-5.7,1.2-10.5,5.6-12.1,11.2c-1.7,5.7,0.1,12.1,4.4,16.1c5.4,5,13.8,5.7,19.9,1.6L-87.9,24.4z"/>
<path d="M-37,1c-6.6,0-12.8,4.3-15,10.5c-2.3,6.3-0.3,13.6,4.9,17.9c5.2,4.2,12.6,4.8,18.4,1.4c5.7-3.5,8.8-10.3,7.5-16.9
	C-22.8,6.5-29.5,1-37,1z M-29.2,16.5v8.9h-5.6v-6.7h-4.4v6.7h-5.6v-8.9h-3.3l11.1-10l11.2,10H-29.2z"/>
<path d="M32.7,13.8C31.4,7.7,26.4,2.7,20.3,1.4C13.9,0,7.2,2.8,3.6,8.2c-3.7,5.6-3.4,13.3,0.7,18.6c4.2,5.5,11.9,7.6,18.4,5.1
	C29.9,29.2,34.2,21.3,32.7,13.8z M19.4,25c0,1.1-0.3,2.2-1.3,2.7c-0.9,0.5-2.1,0.3-2.8-0.5c-0.4-0.5-0.7-1.2-0.7-2.2v-9.2
	c0-0.9,0.2-1.7,0.7-2.1c0.9-1,2.5-0.9,3.4,0c0.5,0.5,0.7,1.1,0.7,2V25z M18.7,10.1c-0.9,0.8-2.4,0.8-3.4,0c-1-0.9-0.9-2.5,0-3.4
	c0.9-0.8,2.4-0.9,3.3-0.1C19.6,7.5,19.6,9.3,18.7,10.1z"/>
</svg>
