<?xml version="1.0" encoding="utf-8"?>
<!-- Generator: Adobe Illustrator 22.0.0, SVG Export Plug-In . SVG Version: 6.00 Build 0)  -->
<svg version="1.1" id="Layer_1" xmlns="http://www.w3.org/2000/svg" xmlns:xlink="http://www.w3.org/1999/xlink" x="0px" y="0px"
	 viewBox="0 0 34 34" style="enable-background:new 0 0 34 34;" xml:space="preserve">
<style type="text/css">
	.st0{fill:#7F7F7F;}
</style>
<path d="M32.7,13.8C31.4,7.7,26.4,2.7,20.3,1.4C13.9,0,7.2,2.8,3.6,8.2c-3.7,5.6-3.4,13.3,0.7,18.6c4.2,5.5,11.9,7.6,18.4,5.1
	C29.9,29.2,34.2,21.3,32.7,13.8z M19.4,25c0,1.1-0.3,2.2-1.3,2.7c-0.9,0.5-2.1,0.3-2.8-0.5c-0.4-0.5-0.7-1.2-0.7-2.2v-9.2
	c0-0.9,0.2-1.7,0.7-2.1c0.9-1,2.5-0.9,3.4,0c0.5,0.5,0.7,1.1,0.7,2V25z M18.7,10.1c-0.9,0.8-2.4,0.8-3.4,0c-1-0.9-0.9-2.5,0-3.4
	c0.9-0.8,2.4-0.9,3.3-0.1C19.6,7.5,19.6,9.3,18.7,10.1z"/>
</svg>
