<?xml version="1.0" encoding="utf-8"?>
<!-- Generator: Adobe Illustrator 22.0.0, SVG Export Plug-In . SVG Version: 6.00 Build 0)  -->
<svg version="1.1" id="Layer_1" xmlns="http://www.w3.org/2000/svg" xmlns:xlink="http://www.w3.org/1999/xlink" x="0px" y="0px"
	 viewBox="0 0 32 32" style="enable-background:new 0 0 32 32;" xml:space="preserve">
<style type="text/css">
	.st0{fill:#7F7F7F;}
</style>
<path class="st0" d="M7.6,24.6c-1.9-1.9-1.9-4.9,0-6.7l4.3-4.3l-2.1-2.1l-4.3,4.3c-3,3-3,7.9,0,10.9s7.9,3,10.9,0l4.3-4.3l-2.1-2.1
	l-4.3,4.3C12.4,26.5,9.4,26.5,7.6,24.6z M13.1,21.3l8.7-8.7l-2.2-2.2l-8.7,8.7L13.1,21.3z M16.4,5L12,9.3l2.1,2.1L18.4,7
	c1.9-1.9,4.9-1.9,6.7,0s1.9,4.9,0,6.7l-4.3,4.3l2.1,2.1l4.3-4.3c3-3,3-7.9,0-10.9S19.4,2,16.4,5z"/>
</svg>
