<?xml version="1.0" encoding="utf-8"?>
<!-- Generator: Adobe Illustrator 22.0.0, SVG Export Plug-In . SVG Version: 6.00 Build 0)  -->
<svg version="1.1" id="Layer_1" xmlns="http://www.w3.org/2000/svg" xmlns:xlink="http://www.w3.org/1999/xlink" x="0px" y="0px"
	 viewBox="0 0 34 34" style="enable-background:new 0 0 34 34;" xml:space="preserve">
<style type="text/css">
	.st0{fill:#7F7F7F;}
</style>
<path d="M20.1,24.4c-1.5,0.6-3.2,0.8-4.8,0.4c-1.7-0.4-3.2-1.2-4.4-2.4c-2.5-2.6-3.4-6.6-1.7-9.9l5.9,5.8l4-4l-5.8-5.8
	c1.6-0.8,3.3-1,5.1-0.7c1.8,0.3,3.4,1.1,4.8,2.4c1.3,1.3,2.1,2.7,2.4,4.4c0.4,1.7,0.2,3.3-0.4,4.8l5.6,5.6c3.4-5.7,2.8-13-1.3-18.2
	c-3.7-4.6-9.9-6.8-15.7-5.6C8,2.5,3.3,6.9,1.6,12.5C0,18.3,1.7,24.6,6.1,28.7c5.4,5,13.8,5.7,19.9,1.6L20.1,24.4z"/>
</svg>
