<?xml version="1.0" standalone="no"?>
<!DOCTYPE svg PUBLIC "-//W3C//DTD SVG 20010904//EN"
 "http://www.w3.org/TR/2001/REC-SVG-20010904/DTD/svg10.dtd">
<svg version="1.0" xmlns="http://www.w3.org/2000/svg"
 width="260.000000pt" height="260.000000pt" viewBox="0 0 260.000000 260.000000"
 preserveAspectRatio="xMidYMid meet">
<metadata>
Created by potrace 1.11, written by Peter Selinger 2001-2013
</metadata>
<g transform="translate(0.000000,260.000000) scale(0.100000,-0.100000)"
fill="#000000" stroke="none">
<path d="M0 1300 l0 -1300 1300 0 1300 0 0 1300 0 1300 -1300 0 -1300 0 0
-1300z m1210 951 l0 -89 -47 -7 c-234 -35 -472 -195 -601 -405 -53 -85 -104
-221 -117 -312 l-7 -48 -89 0 c-103 0 -98 -8 -75 113 20 102 74 241 132 339
88 147 268 315 419 390 106 53 276 104 358 107 l27 1 0 -89z m308 73 c193 -40
404 -155 538 -296 150 -155 260 -385 287 -595 l5 -43 -89 0 -89 0 -5 28 c-36
168 -69 256 -139 360 -55 83 -190 213 -270 261 -84 50 -210 99 -293 113 l-73
12 0 88 c0 88 0 88 25 88 14 0 61 -7 103 -16z m-22 -408 c94 -30 251 -121 253
-147 1 -4 -35 -27 -79 -52 l-80 -46 -56 34 c-56 34 -164 65 -227 65 -114 0
-255 -59 -337 -140 -85 -86 -140 -223 -140 -351 l0 -47 -71 -41 c-39 -23 -74
-41 -79 -41 -24 0 -36 143 -20 240 17 104 43 172 95 256 154 247 461 358 741
270z m448 -503 c11 -67 6 -196 -9 -263 -26 -111 -89 -224 -170 -304 -80 -81
-150 -125 -257 -164 -66 -24 -86 -27 -208 -26 -124 0 -141 2 -210 28 -97 37
-230 121 -230 146 0 3 34 25 75 49 l75 42 84 -42 c77 -38 94 -42 179 -47 172
-9 305 53 409 190 53 69 80 147 87 253 l6 89 75 43 c41 24 78 43 81 43 4 0 9
-17 13 -37z m-1496 -275 c14 -84 63 -210 113 -294 48 -80 178 -215 261 -270
104 -70 192 -103 361 -139 l27 -5 0 -89 0 -89 -42 5 c-95 12 -238 56 -325 99
-245 121 -423 317 -521 570 -30 79 -62 211 -62 259 0 25 0 25 88 25 l88 0 12
-72z m1902 68 c0 -32 -36 -192 -56 -248 -56 -154 -123 -265 -229 -377 -122
-128 -247 -210 -414 -271 -62 -23 -222 -60 -257 -60 -2 0 -4 40 -4 89 0 99 -4
93 75 106 195 31 401 158 529 329 82 109 143 246 161 361 13 79 7 75 106 75
49 0 89 -2 89 -4z"/>
</g>
</svg>
